<svg xmlns="http://www.w3.org/2000/svg" enable-background="new 0 0 153.363 227.691" viewBox="0 0 153.363 227.691" id="family">
  <path d="M73.488 171.887v45.804c0 5.523 4.477 10 10 10 5.521 0 10-4.477 10-10v-49.544c-5.802-.073-11.022-.521-15.646-1.183C77.063 169.117 75.5 170.868 73.488 171.887zM96.822 217.691c0 5.523 4.475 10 10 10 5.52 0 10-4.477 10-10V166.25c-5.617 1.042-12.296 1.801-20 1.898V217.691z"></path>
  <ellipse cx="95.156" cy="21.5" rx="21.496" ry="21.495" transform="rotate(-76.891 95.161 21.5)"></ellipse>
  <path d="M140.419 128.425c.469 3.558 3.733 6.063 7.292 5.595 3.559-.469 6.066-3.733 5.596-7.294-4.61-34.938-14.095-54.117-23.237-64.773-8.446-9.887-16.573-12.02-18.727-12.363-1.874-.462-8.732-2.074-16.188-2.098-7.456.024-14.313 1.635-16.188 2.098-2.153.342-10.279 2.475-18.728 12.363-2.018 2.352-4.053 5.121-6.047 8.381 3.788 4.04 6.115 9.466 6.115 15.43 0 .396-.019.789-.04 1.183 2.903-6.779 5.947-11.683 8.749-15.205l-7.792 38.293c2.35 1.425 5.006 3.631 7.465 7.066 6.561 9.084 9.758 22.854 9.771 42.084-.003 1.596-.025 3.232-.071 4.916 0 .009-.002.018-.002.028 4.931.682 10.524 1.12 16.767 1.12 25.265 0 39.929-7.158 42.801-8.703.348-.187.533-.297.533-.297l-17.19-84.492c.08.1.157.188.238.291C128.252 80.635 136.304 97.201 140.419 128.425zM16.689 218.482c0 4.941 4.008 8.949 8.951 8.949 4.941 0 8.949-4.008 8.949-8.949v-39.955h6.281v39.955c0 4.941 4.006 8.949 8.949 8.949 4.943 0 8.949-4.008 8.949-8.949v-54.648h-42.08V218.482z"></path>
  <path d="M75.459 159.186c-.012-21.316-4.131-33.308-9.209-40.34-4.805-6.71-10.484-8.202-12.086-8.378-.32-.058-.65-.093-.988-.093h-5.734c-1.734 3.091-5.426 5.231-9.711 5.231-4.285 0-7.977-2.141-9.711-5.231h-5.736c-.338 0-.668.035-.99.093-1.604.178-7.281 1.672-12.084 8.379C4.133 125.878.012 137.87 0 159.187c0 1.558.021 3.175.07 4.851.094 3.252 2.758 5.825 5.992 5.825.061 0 .119-.001.18-.002 3.313-.096 5.92-2.859 5.824-6.172-.045-1.553-.066-3.053-.066-4.502-.008-15.11 2.279-24.156 4.689-29.407v30.055h42.08v-30.051c2.41 5.236 4.697 14.306 4.689 29.402 0 1.445-.023 2.95-.063 4.516-.09 3.314 2.523 6.069 5.838 6.159.053.002.107.002.162.002 3.24.001 5.908-2.581 5.994-5.84C75.436 162.361 75.457 160.751 75.459 159.186zM47.561 102.675c5.824-3.393 9.748-9.688 9.748-16.913 0-10.813-8.766-19.578-19.578-19.578-10.813 0-19.578 8.766-19.578 19.578 0 7.226 3.926 13.521 9.75 16.913 2.891 1.684 6.242 2.665 9.828 2.665C41.318 105.34 44.67 104.359 47.561 102.675z"></path>
</svg>
