<svg xmlns="http://www.w3.org/2000/svg" viewBox="0 0 64 64" id="school">
  <path d="M4,58H60a1,1,0,0,0,1-1V35c0-.033-.016-.062-.019-.094a1.032,1.032,0,0,0-.04-.2.968.968,0,0,0-.071-.173.983.983,0,0,0-.1-.155.921.921,0,0,0-.143-.143c-.025-.021-.04-.05-.067-.068l-15-10A1.006,1.006,0,0,0,45,24H43V21a1,1,0,0,0-.485-.857l-10-6a1,1,0,0,0-1.03,0l-10,6A1,1,0,0,0,21,21v3H19a1.006,1.006,0,0,0-.555.168l-15,10c-.027.018-.042.047-.067.068a.921.921,0,0,0-.143.143.983.983,0,0,0-.1.155.968.968,0,0,0-.071.173,1.032,1.032,0,0,0-.04.2c0,.032-.019.061-.019.094V57A1,1,0,0,0,4,58Zm31-2H29V46h6Zm4,0H37V45a1,1,0,0,0-1-1H28a1,1,0,0,0-1,1V56H25V36H39Zm4-30h1.7l12,8H43ZM59,36V56H41V36ZM23,21.566l9-5.4,9,5.4V34H23ZM19.3,26H21v8H7.3ZM5,36H23V56H5Z"></path>
  <path d="M52 40h4a1 1 0 0 0 0-2H52a1 1 0 0 0 0 2zM52 44h4a1 1 0 0 0 0-2H52a1 1 0 0 0 0 2zM52 48h4a1 1 0 0 0 0-2H52a1 1 0 0 0 0 2zM52 52h4a1 1 0 0 0 0-2H52a1 1 0 0 0 0 2zM44 40h4a1 1 0 0 0 0-2H44a1 1 0 0 0 0 2zM44 44h4a1 1 0 0 0 0-2H44a1 1 0 0 0 0 2zM44 48h4a1 1 0 0 0 0-2H44a1 1 0 0 0 0 2zM44 52h4a1 1 0 0 0 0-2H44a1 1 0 0 0 0 2zM34 60H30a1 1 0 0 0 0 2h4a1 1 0 0 0 0-2zM20 38H16a1 1 0 0 0 0 2h4a1 1 0 0 0 0-2zM20 42H16a1 1 0 0 0 0 2h4a1 1 0 0 0 0-2zM20 46H16a1 1 0 0 0 0 2h4a1 1 0 0 0 0-2zM20 50H16a1 1 0 0 0 0 2h4a1 1 0 0 0 0-2zM12 38H8a1 1 0 0 0 0 2h4a1 1 0 0 0 0-2zM12 42H8a1 1 0 0 0 0 2h4a1 1 0 0 0 0-2zM12 46H8a1 1 0 0 0 0 2h4a1 1 0 0 0 0-2zM12 50H8a1 1 0 0 0 0 2h4a1 1 0 0 0 0-2zM32 19a7 7 0 1 0 7 7A7.008 7.008 0 0 0 32 19zm0 12a5 5 0 1 1 5-5A5.006 5.006 0 0 1 32 31z"></path>
  <path d="M33 26V23a1 1 0 0 0-2 0v4a1 1 0 0 0 1 1h3a1 1 0 0 0 0-2zM28 40h8a1 1 0 0 0 0-2H28a1 1 0 0 0 0 2zM61 60H44a1 1 0 0 0 0 2H61a1 1 0 0 0 0-2zM3 62H20a1 1 0 0 0 0-2H3a1 1 0 0 0 0 2zM19.524 19.852L32 12.174l12.476 7.678a1 1 0 1 0 1.048-1.7L33 10.441V8h2V9a1 1 0 0 0 1 1h8a1 1 0 0 0 .707-1.707L43.414 7l1.293-1.293A1 1 0 0 0 44 4H39V3a1 1 0 0 0-1-1H32a1 1 0 0 0-1 1v7.441L18.476 18.148a1 1 0 0 0 1.048 1.7zM33 4h4V5a1 1 0 0 0 1 1h3.586l-.293.293a1 1 0 0 0 0 1.414L41.586 8H37V7a1 1 0 0 0-1-1H33z"></path>
</svg>
