<svg xmlns="http://www.w3.org/2000/svg" width="256" height="256" id="teacher">
  <path d="M239.447 164.028C230.777 128.702 233.417 91.3511 272.827 79.0608C286.026 74.9448 281.548 76.6151 291.838 68.329C300.85 61.0722 312.748 56.7706 324.226 56.0677C355.295 54.1746 390.681 82.7305 401.855 109.871C408.783 126.698 409.759 147.05 402.631 163.995C423.387 164.42 411.29 194.527 405.604 204.411C398.617 216.555 400.427 208.723 397.467 224.205C391.081 257.613 366.42 292.107 335.434 306.134C340.65 313.431 348.151 323.615 351.279 331.956C348.585 343.402 340.652 352.027 337.578 361.852C335.846 367.389 343.636 401.898 344.195 411.574C357.103 384.626 370.038 355.386 380.922 327.726C385.848 315.207 389.066 299.645 406.108 305.885C415.412 309.292 424.326 314.169 433.362 318.239L463.592 332.089C502.468 350.228 506.015 361.925 511.42 401.195L522.947 481.837C524.278 491.357 526.16 501.202 526.543 510.806C527.199 527.245 507.258 523.766 496.741 523.764L458.354 523.754C411.021 523.75 363.62 523.242 316.296 523.828C300.863 523.597 285.407 523.756 269.971 523.755L153.034 523.767C147.016 523.768 127.703 524.607 122.928 522.766C111.147 518.222 115.763 503.721 117.026 494.313L129.409 407.694C136.312 358.959 136.82 351.53 184.644 329.114C200.906 321.491 217.191 313.912 233.584 306.574C250.293 299.096 253.708 309.764 259.272 323.285C271.605 353.255 285.516 382.537 298.34 412.293C300.225 397.867 304.467 380.301 305.266 366.368C305.66 359.496 293.78 341.326 290.97 332.302L290.833 331.855C292.536 324.905 301.377 312.056 306.159 306.626C275.53 293.208 248.663 253.297 243.306 221.675C241.118 208.758 241.535 214.467 236.11 204.728C232.484 198.219 222.524 173.449 229.044 166.605C231.637 163.883 235.988 164.099 239.447 164.028Z" transform="scale(.4)"></path>
</svg>
